<svg width="2222" height="763" viewBox="0 0 2222 763" fill="none" xmlns="http://www.w3.org/2000/svg">
<path d="M770.947 81.564C868.353 70.6658 954.884 101.212 997.556 189.449C1015.17 225.868 1027.65 252.149 1017.04 291.187C1004.25 338.285 951.904 335.163 925.369 376.124C896.006 421.451 919.577 467.102 884.634 508.281C865.364 530.989 851.086 542.297 823.842 554.328C734.182 593.923 650.183 528.923 597.233 446.443C511.976 313.635 614.107 99.112 770.947 81.564Z" fill="#FFEEA4"/>
<path d="M1004.94 145.403C1105.57 130.65 1196.4 159.265 1243.78 249.265C1263.33 286.411 1277.21 313.226 1267.59 354.088C1255.99 403.387 1201.59 402.003 1175.52 445.424C1146.68 493.472 1172.74 539.983 1137.96 583.927C1118.78 608.16 1104.37 620.393 1076.54 633.836C984.958 678.076 895.539 613.639 837.704 529.973C744.579 395.257 842.902 169.157 1004.94 145.403Z" fill="#D04900"/>
<path d="M1539.69 681.788C1442.48 694.377 1355.44 665.339 1311.24 577.856C1293 541.749 1280.06 515.689 1289.99 476.472C1301.96 429.159 1354.35 431.371 1380.17 389.955C1408.74 344.126 1384.38 298.891 1418.6 257.111C1437.48 234.072 1451.55 222.518 1478.59 210.015C1567.54 168.868 1652.66 232.399 1707.03 313.947C1794.59 445.253 1696.2 661.518 1539.69 681.788Z" fill="#FFEEA4"/>
<path d="M1905.27 105.145C2005.9 90.3923 2096.73 119.008 2144.11 209.008C2163.66 246.153 2177.54 272.968 2167.92 313.831C2156.32 363.129 2101.92 361.745 2075.85 405.166C2047.01 453.214 2073.07 499.725 2038.29 543.669C2019.11 567.902 2004.7 580.135 1976.87 593.578C1885.29 637.818 1795.87 573.381 1738.03 489.715C1644.91 354.999 1743.23 128.899 1905.27 105.145Z" fill="#D04900"/>
<path d="M282.631 164.662C383.266 149.91 474.09 178.525 521.47 268.525C541.025 305.671 554.9 332.486 545.283 373.348C533.679 422.647 479.285 421.263 453.215 464.684C424.368 512.732 450.431 559.243 415.65 603.186C396.469 627.42 382.062 639.653 354.233 653.096C262.649 697.336 173.23 632.899 115.395 549.233C22.2695 414.517 120.593 188.416 282.631 164.662Z" fill="#D04900"/>
</svg>
