<svg width="2102" height="1793" viewBox="0 0 2102 1793" fill="none" xmlns="http://www.w3.org/2000/svg">
<path d="M896.129 793.12C992.518 760.654 1086.99 772.61 1149.66 852.715C1175.53 885.777 1193.97 909.687 1191.79 951.609C1189.17 1002.19 1135.4 1010.53 1117.49 1057.9C1097.68 1110.33 1131.62 1151.44 1105.24 1200.88C1090.69 1228.15 1078.69 1242.76 1053.71 1260.95C971.482 1320.82 872.004 1273.36 800.172 1201.35C684.511 1085.41 740.927 845.397 896.129 793.12Z" fill="#D04900"/>
<path d="M371.111 1256.9C457.943 1203.94 552.721 1194.73 631.547 1259C664.081 1285.53 687.345 1304.77 694.488 1346.14C703.106 1396.05 652.509 1416.06 645.514 1466.22C637.774 1521.73 679.962 1554.33 665.155 1608.38C656.99 1638.19 648.52 1655.08 628.173 1678.35C561.21 1754.9 453.705 1730.61 367.737 1676.25C229.313 1588.73 231.297 1342.19 371.111 1256.9Z" fill="#D04900"/>
<path d="M1539.11 1726.03C1443.3 1760.17 1348.64 1749.85 1284.58 1670.85C1258.15 1638.24 1239.3 1614.66 1240.74 1572.7C1242.49 1522.09 1296.1 1512.81 1313.18 1465.13C1332.08 1412.37 1297.43 1371.85 1322.96 1321.96C1337.03 1294.44 1348.77 1279.63 1373.43 1261.01C1454.61 1199.72 1554.89 1245.44 1627.97 1316.19C1745.62 1430.11 1693.39 1671.06 1539.11 1726.03Z" fill="#D04900"/>
<path d="M654.501 772.042C748.401 743.944 838.993 758.566 896.72 837.776C920.545 870.469 937.514 894.103 934.041 934.407C929.851 983.032 877.791 989.297 858.988 1034.33C838.181 1084.17 869.517 1124.89 842.48 1171.64C827.569 1197.42 815.538 1211.09 790.877 1227.79C709.717 1282.74 615.471 1233.77 548.658 1162.06C441.078 1046.59 503.306 817.285 654.501 772.042Z" fill="#B1E3FC"/>
<path d="M1842.19 1682.77C1748.8 1712.49 1657.96 1699.45 1598.87 1621.25C1574.48 1588.98 1557.1 1565.64 1559.88 1525.28C1563.22 1476.59 1615.16 1469.42 1633.18 1424.07C1653.12 1373.88 1621.08 1333.71 1647.3 1286.5C1661.76 1260.46 1673.55 1246.58 1697.92 1229.46C1778.11 1173.1 1873.2 1220.43 1941.25 1290.97C2050.82 1404.56 1992.58 1634.9 1842.19 1682.77Z" fill="#B1E3FC"/>
<path d="M1517.98 1225.52C1424.58 1255.24 1333.75 1242.2 1274.65 1164C1250.26 1131.73 1232.89 1108.39 1235.66 1068.03C1239 1019.34 1290.95 1012.17 1308.96 966.817C1328.9 916.626 1296.86 876.462 1323.08 829.248C1337.54 803.212 1349.34 789.332 1373.7 772.208C1453.9 715.853 1548.98 763.182 1617.03 833.724C1726.6 947.307 1668.36 1177.65 1517.98 1225.52Z" fill="#B1E3FC"/>
<path d="M1038.19 1726.77C944.797 1756.49 853.965 1743.45 794.871 1665.25C770.48 1632.98 753.104 1609.64 755.876 1569.28C759.221 1520.59 811.164 1513.42 829.182 1468.07C849.12 1417.88 817.081 1377.71 843.302 1330.5C857.762 1304.46 869.555 1290.58 893.922 1273.46C974.114 1217.1 1069.2 1264.43 1137.25 1334.97C1246.82 1448.56 1188.58 1678.9 1038.19 1726.77Z" fill="#B1E3FC"/>
<path d="M1774.84 592.912C1871.23 560.445 1965.7 572.401 2028.37 652.506C2054.24 685.568 2072.68 709.478 2070.5 751.4C2067.88 801.978 2014.11 810.319 1996.2 857.694C1976.39 910.117 2010.33 951.233 1983.95 1000.68C1969.4 1027.94 1957.4 1042.55 1932.42 1060.74C1850.19 1120.61 1750.71 1073.15 1678.88 1001.15C1563.22 885.201 1619.64 645.188 1774.84 592.912Z" fill="#D04900"/>
<path d="M208.839 886.773C305.228 854.306 399.7 866.262 462.374 946.367C488.242 979.429 506.677 1003.34 504.503 1045.26C501.879 1095.84 448.11 1104.18 430.204 1151.55C410.39 1203.98 444.331 1245.09 417.946 1294.54C403.395 1321.8 391.402 1336.41 366.417 1354.6C284.192 1414.47 184.714 1367.01 112.882 1295.01C-2.77927 1179.06 53.6368 939.049 208.839 886.773Z" fill="#B1E3FC"/>
<path d="M240.689 616.983C144.345 584.384 76.4506 517.614 75.1536 415.913C74.6183 373.937 74.4473 343.746 101.587 311.719C134.329 273.081 182.151 299.037 225.108 272.209C272.642 242.523 270.567 189.248 321.521 165.914C349.62 153.046 368.013 148.698 398.911 149.373C500.597 151.593 550.958 249.632 564.447 350.443C586.166 512.767 395.819 669.474 240.689 616.983Z" fill="#D04900"/>
<path d="M1529.95 518.713C1470.97 601.574 1387.46 647.345 1289.7 619.276C1249.35 607.691 1220.39 599.154 1197.55 563.936C1169.99 521.447 1208.62 483.134 1195.31 434.269C1180.59 380.196 1128.97 366.829 1121.31 311.312C1117.09 280.696 1118.23 261.83 1127.78 232.438C1159.21 135.707 1267.6 115.738 1368.03 131.875C1529.72 157.859 1624.92 385.293 1529.95 518.713Z" fill="#D04900"/>
<path d="M1653.21 627.767C1746.6 657.492 1837.44 644.446 1896.53 566.251C1920.92 533.977 1938.3 510.641 1935.53 470.283C1932.18 421.593 1880.24 414.425 1862.22 369.067C1842.28 318.876 1874.32 278.712 1848.1 231.498C1833.64 205.462 1821.85 191.582 1797.48 174.458C1717.29 118.103 1622.2 165.432 1554.16 235.974C1444.59 349.557 1502.82 579.904 1653.21 627.767Z" fill="#B1E3FC"/>
<path d="M598.231 424.005C634.92 514.893 702.91 576.522 800.826 572.148C841.239 570.343 870.295 568.838 899.606 540.958C934.969 507.322 907.354 462.748 930.79 419.938C956.723 372.565 1008.09 371.617 1027.72 321.306C1038.55 293.561 1041.72 275.625 1039.36 245.936C1031.6 148.23 934.499 105.198 836.766 97.7936C679.398 85.8705 539.157 277.66 598.231 424.005Z" fill="#B1E3FC"/>
</svg>
