<svg width="1968" height="726" viewBox="0 0 1968 726" fill="none" xmlns="http://www.w3.org/2000/svg">
<path d="M240.689 616.983C144.345 584.384 76.4505 517.614 75.1535 415.913C74.6182 373.937 74.4471 343.746 101.586 311.719C134.329 273.081 182.151 299.037 225.108 272.209C272.642 242.523 270.567 189.248 321.521 165.914C349.62 153.046 368.013 148.698 398.911 149.373C500.597 151.593 550.958 249.632 564.447 350.443C586.166 512.767 395.819 669.474 240.689 616.983Z" fill="#D04900"/>
<path d="M1529.95 518.713C1470.97 601.574 1387.46 647.345 1289.7 619.276C1249.35 607.691 1220.39 599.154 1197.55 563.936C1169.99 521.447 1208.62 483.134 1195.31 434.269C1180.59 380.196 1128.97 366.829 1121.31 311.312C1117.09 280.696 1118.23 261.83 1127.78 232.438C1159.21 135.707 1267.6 115.738 1368.03 131.875C1529.72 157.859 1624.92 385.293 1529.95 518.713Z" fill="#D04900"/>
<path d="M1653.21 627.767C1746.6 657.492 1837.44 644.446 1896.53 566.251C1920.92 533.977 1938.3 510.641 1935.53 470.283C1932.18 421.593 1880.24 414.425 1862.22 369.067C1842.28 318.876 1874.32 278.712 1848.1 231.498C1833.64 205.462 1821.85 191.582 1797.48 174.458C1717.29 118.103 1622.2 165.432 1554.16 235.974C1444.59 349.557 1502.82 579.904 1653.21 627.767Z" fill="#B1E3FC"/>
<path d="M598.231 424.005C634.92 514.893 702.91 576.522 800.826 572.148C841.239 570.343 870.295 568.838 899.606 540.958C934.969 507.322 907.354 462.748 930.79 419.938C956.723 372.565 1008.09 371.617 1027.72 321.306C1038.55 293.561 1041.72 275.625 1039.36 245.936C1031.6 148.23 934.499 105.198 836.766 97.7936C679.398 85.8705 539.156 277.66 598.231 424.005Z" fill="#B1E3FC"/>
</svg>
